<?xml version="1.0" encoding="utf-8"?>
<svg viewBox="25.5242 29.0725 443.5298 436.494" width="443.5298" height="436.494" xmlns="http://www.w3.org/2000/svg">
  <path d="M 291.722 344.154 L 291.722 456.675 C 137.935 503.463 -6.499 358.159 31.744 195.136 C 59.992 74.747 178.155 3.223 291.722 37.781 L 291.722 150.3 C 220.553 103.507 127.761 155.042 124.695 243.053 C 121.63 331.065 210.599 389.548 284.834 348.326 C 287.18 347.022 289.479 345.628 291.722 344.154" style="fill-rule: nonzero; paint-order: fill; stroke-linecap: round; stroke: rgb(255, 255, 255); fill: rgb(14, 96, 218); stroke-width: 9px;" transform="matrix(0.9999999999999999, 0, 0, 0.9999999999999999, 0, 0)"/>
  <polygon points="387.216 236.5 469.054 150.69 291.722 150.69 291.722 236.5" style="fill: rgb(14, 96, 218); stroke-linecap: round; stroke: rgb(255, 255, 255); stroke-width: 9px;" transform="matrix(0.9999999999999999, 0, 0, 0.9999999999999999, 0, 0)"/>
  <polygon points="387.216 257.949 469.054 343.754 291.722 343.754 291.722 257.949" fill="#ff0000" style="stroke: rgb(255, 255, 255); stroke-width: 9px;" transform="matrix(0.9999999999999999, 0, 0, 0.9999999999999999, 0, 0)"/>
</svg>