<?xml version="1.0" encoding="utf-8"?>
<svg viewBox="112.3835 63.462 256.4665 189.429" width="256.4665" height="189.429" xmlns="http://www.w3.org/2000/svg" xmlns:bx="https://boxy-svg.com">
  <path d="M 199.264 71.113 Q 205.203 59.155 205.203 71.113 L 205.203 240.07 Q 205.203 252.028 199.264 252.028 L 115.353 252.028 Q 109.414 252.028 115.353 240.07 Z" style="fill: rgb(255, 204, 0); stroke: rgb(0, 0, 0); stroke-width: 5px;" transform="matrix(1, 0, 0, 1, 3.552713678800501e-15, 0)" bx:shape="triangle 109.414 59.155 95.789 192.873 1 0.062 1@94d919b8"/>
  <path d="M -220.599 -244.654 Q -214.663 -256.63 -214.663 -244.654 L -214.663 -75.438 Q -214.663 -63.462 -220.599 -63.462 L -304.473 -63.462 Q -310.409 -63.462 -304.473 -75.438 Z" style="fill: rgb(255, 204, 2); stroke: rgb(0, 0, 0); stroke-width: 5px;" transform="matrix(-1, 0, 0, -1, 3.552713678800501e-15, 0)" bx:shape="triangle -310.409 -256.63 95.746 193.168 1 0.062 1@825b75c9"/>
  <path d="M 316.97 70.323 C 317.783 68.674 318.512 67.363 319.158 66.39 C 319.751 65.02 320.628 64.153 321.606 64.153 L 365.614 64.153 C 367.401 64.153 368.85 67.047 368.85 70.616 L 368.85 246.428 C 368.85 249.997 367.401 252.891 365.614 252.891 L 321.606 252.891 C 320.972 252.891 320.38 252.527 319.881 251.897 C 319.072 252.553 318.102 252.881 316.97 252.881 L 232.971 252.881 C 229.008 252.881 229.008 248.859 232.971 240.814 Z" style="fill: rgb(255, 204, 2); stroke: rgb(0, 0, 0); stroke-width: 5px;" transform="matrix(1, 0, 0, 1, 3.552713678800501e-15, 0)"/>
</svg>