<?xml version="1.0" encoding="utf-8"?>
<svg viewBox="0 0 500 500" xmlns="http://www.w3.org/2000/svg" xmlns:bx="https://boxy-svg.com">
  <defs>
    <bx:guide x="310.1813014414849" y="214.85627791293263" angle="0"/>
  </defs>
  <path d="M 167.866 137.955 Q 173.805 125.997 173.805 137.955 L 173.805 306.912 Q 173.805 318.87 167.866 318.87 L 83.955 318.87 Q 78.016 318.87 83.955 306.912 Z" style="fill: rgb(255, 204, 0); stroke: rgba(0, 0, 0, 0);" bx:shape="triangle 78.016 125.997 95.789 192.873 1 0.062 1@e3f7a554"/>
  <path d="M -189.201 -311.496 Q -183.265 -323.472 -183.265 -311.496 L -183.265 -142.28 Q -183.265 -130.304 -189.201 -130.304 L -273.075 -130.304 Q -279.011 -130.304 -273.075 -142.28 Z" style="fill: rgb(255, 204, 2); stroke: rgba(0, 0, 0, 0);" transform="matrix(-1, 0, 0, -1, 0, 0)" bx:shape="triangle -279.011 -323.472 95.746 193.168 1 0.062 1@2207b0b9"/>
  <path d="M 286.811 137.165 C 290.775 129.12 292.757 129.12 292.757 137.165 L 292.757 307.656 C 292.757 315.701 290.775 319.723 286.811 319.723 L 202.812 319.723 C 198.849 319.723 198.849 315.701 202.812 307.656 L 286.811 137.165 Z" style="fill: rgb(255, 204, 2); stroke: rgba(0, 0, 0, 0);"/>
  <path d="M 290.208 130.995 L 334.216 130.995 C 336.003 130.995 337.452 133.889 337.452 137.458 L 337.452 313.27 C 337.452 316.839 336.003 319.733 334.216 319.733 L 290.208 319.733 C 288.421 319.733 286.972 316.839 286.972 313.27 L 286.972 137.458 C 286.972 133.889 288.421 130.995 290.208 130.995 Z" style="fill: rgb(255, 204, 2); stroke: rgba(0, 0, 0, 0);"/>
</svg>